Coordinates
version=1
nRows=17
nColumns=40
inDegrees=yes

Units are S.I. units (second, meters, Newtons, ...)
Angles are in degrees.

endheader
time	pelvis_tilt	pelvis_list	pelvis_rotation	pelvis_tx	pelvis_ty	pelvis_tz	hip_flexion_r	hip_adduction_r	hip_rotation_r	knee_angle_r	knee_angle_r_beta	ankle_angle_r	subtalar_angle_r	mtp_angle_r	hip_flexion_l	hip_adduction_l	hip_rotation_l	knee_angle_l	knee_angle_l_beta	ankle_angle_l	subtalar_angle_l	mtp_angle_l	lumbar_extension	lumbar_bending	lumbar_rotation	arm_flex_r	arm_add_r	arm_rot_r	elbow_flex_r	pro_sup_r	wrist_flex_r	wrist_dev_r	arm_flex_l	arm_add_l	arm_rot_l	elbow_flex_l	pro_sup_l	wrist_flex_l	wrist_dev_l
     18.04000000	     -4.89488681	     -3.38120535	     -0.49135050	      0.77460582	      0.92913782	      0.41974082	     24.73191533	     -6.49271669	     -7.50834646	     62.84572666	     62.84572666	      4.55046228	    -18.72203087	      8.21713756	     16.45640681	     -2.52759681	     -5.18964583	     22.37624153	     22.37624153	     12.82007916	    -12.84463588	      1.25766157	     -8.99992204	      4.62610673	      2.87192299	     17.56421086	    -11.73198175	     -1.17614832	     34.80158745	     45.72430049	      0.00000000	      0.00000000	     10.53644556	    -13.04749816	     -5.21093614	     52.12564467	     45.94484376	      0.00000000	      0.00000000
     18.05364286	     -4.89195576	     -3.49280824	     -0.73909520	      0.77356567	      0.92967664	      0.41960972	     25.98426289	     -6.16006458	     -7.27109894	     62.20380435	     62.20380435	      4.60863133	    -18.43091296	      8.13520449	     15.82339460	     -2.66727038	     -5.43133510	     22.09733138	     22.09733138	     13.09486037	    -12.78329613	      1.21117914	     -9.18587124	      4.86882985	      2.21440070	     15.69715835	    -11.77569273	     -1.13630661	     34.02017867	     45.73999296	      0.00000000	      0.00000000	     11.32282403	    -13.70710322	     -5.45574689	     52.55363475	     45.98004446	      0.00000000	      0.00000000
     18.06728571	     -4.89630646	     -3.51397037	     -1.10099470	      0.77278418	      0.93049204	      0.41961928	     27.10453052	     -5.86360016	     -6.95781693	     61.23096350	     61.23096350	      4.39890069	    -18.29142676	      7.76979255	     14.81815817	     -2.74229407	     -5.99807251	     21.15990663	     21.15990663	     13.30622369	    -12.05440692	      1.08579134	     -9.36010755	      4.91726540	      3.16172271	     13.11945008	    -12.42428668	     -0.95333335	     32.01258475	     45.79518352	      0.00000000	      0.00000000	     12.56795714	    -13.53634418	     -5.85087665	     54.26268068	     46.05420774	      0.00000000	      0.00000000
     18.08092857	     -4.81913328	     -3.60373318	     -1.39764781	      0.77196848	      0.93105173	      0.41964953	     27.95825442	     -5.57293031	     -6.83428947	     59.91746392	     59.91746392	      3.59052216	    -18.13027918	      5.20933796	     13.99162758	     -2.92779172	     -6.61722648	     20.69499745	     20.69499745	     13.38367426	    -11.45354235	      0.16561003	     -9.62573594	      5.07802988	      2.77410980	     12.01935921	    -12.39331769	     -0.62244718	     28.63570302	     45.93160867	      0.00000000	      0.00000000	     12.82238682	    -14.11167967	     -6.71357596	     56.54749134	     46.22277710	      0.00000000	      0.00000000
     18.09457143	     -4.84914527	     -3.68445997	     -1.64198525	      0.77116251	      0.93148419	      0.41969268	     28.90444997	     -5.24230790	     -6.67099731	     58.48875487	     58.48875487	      3.56959535	    -17.72915712	      5.16243184	     13.22359630	     -3.00361502	     -6.84656683	     20.09387395	     20.09387395	     13.61033081	    -11.21418325	      0.16347705	     -9.73741853	      5.27169021	      2.69416208	      9.92150971	    -12.63478548	     -0.57478368	     27.54681695	     45.95985432	      0.00000000	      0.00000000	     13.71820498	    -14.46062038	     -7.07723282	     57.39389344	     46.27680183	      0.00000000	      0.00000000
     18.10821429	     -4.91744959	     -3.69586377	     -1.87408184	      0.77027824	      0.93164771	      0.41983253	     29.79453030	     -5.00448416	     -6.53915106	     56.77517782	     56.77517782	      3.65354295	    -17.13619987	      5.13971833	     12.66260017	     -3.02927804	     -7.11906563	     19.77182989	     19.77182989	     13.83750804	    -11.08441286	      0.09484903	     -9.81279120	      5.36849439	      2.37292144	      8.04993974	    -12.79270826	     -0.56234457	     26.70559901	     45.98030345	      0.00000000	      0.00000000	     14.48710929	    -15.15287231	     -7.43731658	     58.00138907	     46.32243641	      0.00000000	      0.00000000
     18.12185714	     -4.80963470	     -3.77798238	     -2.15809073	      0.76970192	      0.93223958	      0.42019496	     30.25835545	     -4.65745298	     -6.44420766	     54.54627188	     54.54627188	      3.55861888	    -16.50916948	      4.62466265	     11.59772387	     -3.13609974	     -7.61618337	     18.91312970	     18.91312970	     14.03102008	    -10.44071611	     -0.09615283	    -10.11822780	      5.50677524	      3.04293633	      5.82364277	    -13.23432636	     -0.53480269	     25.26129297	     46.02940044	      0.00000000	      0.00000000	     15.48087869	    -14.86752763	     -7.91810203	     59.80008252	     46.40152197	      0.00000000	      0.00000000
     18.13550000	     -4.82948372	     -3.80998276	     -2.38469673	      0.76900106	      0.93234296	      0.42066692	     30.75209084	     -4.41214820	     -6.47088644	     52.00766812	     52.00766812	      3.36568167	    -15.80426221	      3.53061938	     10.86970169	     -3.21875276	     -8.07597108	     18.38662514	     18.38662514	     14.18819070	     -9.90641328	     -0.55585411	    -10.26228221	      5.58151203	      3.02251328	      3.89633556	    -13.38219878	     -0.67221974	     24.25277089	     46.08099061	      0.00000000	      0.00000000	     16.03339822	    -15.16166032	     -8.59820009	     61.48042612	     46.49746178	      0.00000000	      0.00000000
     18.14914286	     -4.96989987	     -3.88488197	     -2.54459510	      0.76835150	      0.93217377	      0.42123240	     31.11225167	     -4.15389358	     -6.69412175	     48.90649931	     48.90649931	      2.46497776	    -15.35573466	      0.34978737	     10.29028300	     -3.34472463	     -8.43837243	     17.86364049	     17.86364049	     14.14016169	     -9.51285311	     -1.52887518	    -10.22254576	      5.72291220	      2.37511075	      2.25295700	    -13.37723228	     -1.35336331	     23.73533179	     46.19097586	      0.00000000	      0.00000000	     15.88474753	    -15.63961321	     -9.89383989	     63.75104880	     46.67875207	      0.00000000	      0.00000000
     18.16278571	     -5.16517952	     -3.95369858	     -2.68178784	      0.76764917	      0.93191339	      0.42198945	     31.49371257	     -3.87290791	     -6.94953649	     45.72520099	     45.72520099	      2.66363326	    -14.29467810	      0.42864047	      9.80130717	     -3.43606609	     -8.58238219	     17.39557926	     17.39557926	     14.33952069	     -9.31281852	     -1.60112845	    -10.07164179	      5.88210209	      2.08078377	      0.43444572	    -13.45901512	     -1.41616671	     23.10358494	     46.21059517	      0.00000000	      0.00000000	     16.46269036	    -16.15555233	    -10.22078312	     64.36040539	     46.72027998	      0.00000000	      0.00000000
     18.17642857	     -5.26124431	     -4.01034075	     -2.82134633	      0.76713106	      0.93174457	      0.42287321	     31.55036166	     -3.62227071	     -7.36178817	     42.17979776	     42.17979776	      2.82284794	    -12.95662802	      0.36977431	      9.13982575	     -3.52562490	     -8.83233019	     16.84094045	     16.84094045	     14.53097570	     -8.93800196	     -1.78840579	    -10.05238108	      5.97904182	      2.00353126	     -1.45032712	    -13.60167488	     -1.56064595	     22.60571509	     46.23199700	      0.00000000	      0.00000000	     17.00950877	    -16.39662523	    -10.60125194	     65.37843185	     46.77274261	      0.00000000	      0.00000000
     18.19007143	     -5.32441000	     -4.02797581	     -2.95999701	      0.76678081	      0.93147430	      0.42392652	     31.39736250	     -3.40120844	     -7.89268314	     38.40013530	     38.40013530	      2.91467971	    -11.41967534	      0.21377896	      8.42731391	     -3.59187823	     -9.15585233	     16.27988567	     16.27988567	     14.70500066	     -8.45182003	     -2.12321112	    -10.06305326	      6.04220843	      1.96034845	     -3.37625354	    -13.70434671	     -1.82123902	     22.35712761	     46.25283715	      0.00000000	      0.00000000	     17.44165306	    -16.58987677	    -11.07280964	     66.65093830	     46.83653218	      0.00000000	      0.00000000
     18.20371429	     -5.41437287	     -3.97804105	     -3.09710593	      0.76661909	      0.93089842	      0.42514109	     31.07090430	     -3.20768845	     -8.51551499	     34.35029709	     34.35029709	      2.29329509	    -10.02774981	     -1.87910716	      7.69271466	     -3.61535027	     -9.68299399	     15.62116170	     15.62116170	     14.53321864	     -7.84141100	     -3.57825198	    -10.08255423	      6.00847833	      1.71557368	     -5.68164199	    -13.62708791	     -3.60955823	     23.87735794	     46.35485976	      0.00000000	      0.00000000	     17.22957120	    -16.74291658	    -12.38087966	     69.21800766	     47.02594125	      0.00000000	      0.00000000
     18.21735714	     -5.52816776	     -3.94872735	     -3.22029425	      0.76661789	      0.93024239	      0.42651791	     30.70270482	     -2.91602390	     -9.10602995	     30.43912111	     30.43912111	      2.33615023	     -8.34750831	     -1.35521390	      7.05280155	     -3.62494750	     -9.88075031	     15.13966950	     15.13966950	     14.75037197	     -7.57658288	     -3.78090996	     -9.92009049	      6.00520221	      1.58780123	     -7.31373985	    -13.59846423	     -3.78547959	     23.41081693	     46.37762817	      0.00000000	      0.00000000	     17.63765136	    -17.05889001	    -12.63862542	     69.88739197	     47.06513253	      0.00000000	      0.00000000
     18.23100000	     -5.58372832	     -3.85955973	     -3.35880943	      0.76691857	      0.92949653	      0.42808100	     30.19227837	     -2.68058398	     -9.82398570	     26.69457476	     26.69457476	      2.36641105	     -6.41355385	     -0.67333952	      6.28056830	     -3.58237026	    -10.18415641	     14.57715453	     14.57715453	     14.96565704	     -7.15310401	     -4.09867470	     -9.78044053	      5.91650829	      1.53945213	     -8.92569242	    -13.49674259	     -4.02407765	     23.15171785	     46.39601812	      0.00000000	      0.00000000	     17.92822651	    -17.26703059	    -12.94312057	     70.74928548	     47.10964599	      0.00000000	      0.00000000
     18.24464286	     -5.54590956	     -3.73660465	     -3.47448458	      0.76755318	      0.92865821	      0.42980152	     29.56897069	     -2.47517069	    -10.58318556	     23.33115402	     23.33115402	      2.47053051	     -4.32228518	      0.20418112	      5.36257283	     -3.50446900	    -10.54713942	     13.96959203	     13.96959203	     15.19255952	     -6.62701035	     -4.54131053	     -9.75205446	      5.79034580	      1.52607368	    -10.49663477	    -13.37326977	     -4.35258311	     23.09596177	     46.41342225	      0.00000000	      0.00000000	     18.11020025	    -17.39416553	    -13.29165876	     71.74582461	     47.15944337	      0.00000000	      0.00000000
     18.25828571	     -5.45421673	     -3.57033115	     -3.60419699	      0.76849550	      0.92768390	      0.43164720	     28.95516783	     -2.32785469	    -11.36918838	     20.53616082	     20.53616082	      2.61553870	     -2.21640678	      1.34317504	      4.35452963	     -3.37447561	    -10.94718830	     13.34304249	     13.34304249	     15.41478112	     -6.06027202	     -5.09242351	     -9.74677030	      5.62934053	      1.52024754	    -12.00134338	    -13.19391080	     -4.78167415	     23.24184822	     46.43111919	      0.00000000	      0.00000000	     18.17915537	    -17.48871829	    -13.69099674	     72.80943532	     47.21452087	      0.00000000	      0.00000000
